<svg width="1426" height="338" viewBox="0 0 1426 338" fill="none" xmlns="http://www.w3.org/2000/svg">
<circle cx="155" cy="169" r="155" fill="#F4D9EA"/>
<path d="M239.016 198.797C237.422 220.828 229.266 238.172 214.547 250.828C199.922 263.484 180.609 269.812 156.609 269.812C130.359 269.812 109.688 261 94.5938 243.375C79.5938 225.656 72.0938 201.375 72.0938 170.531V158.016C72.0938 138.328 75.5625 120.984 82.5 105.984C89.4375 90.9844 99.3281 79.5 112.172 71.5312C125.109 63.4688 140.109 59.4375 157.172 59.4375C180.797 59.4375 199.828 65.7656 214.266 78.4219C228.703 91.0781 237.047 108.844 239.297 131.719H197.109C196.078 118.5 192.375 108.938 186 103.031C179.719 97.0312 170.109 94.0312 157.172 94.0312C143.109 94.0312 132.562 99.0938 125.531 109.219C118.594 119.25 115.031 134.859 114.844 156.047V171.516C114.844 193.641 118.172 209.812 124.828 220.031C131.578 230.25 142.172 235.359 156.609 235.359C169.641 235.359 179.344 232.406 185.719 226.5C192.188 220.5 195.891 211.266 196.828 198.797H239.016Z" fill="#641145"/>
<path d="M423.625 267C422.125 264 420.906 258.656 419.969 250.969C407.875 263.531 393.438 269.812 376.656 269.812C361.656 269.812 349.328 265.594 339.672 257.156C330.109 248.625 325.328 237.844 325.328 224.812C325.328 208.969 331.328 196.688 343.328 187.969C355.422 179.156 372.391 174.75 394.234 174.75H419.547V162.797C419.547 153.703 416.828 146.484 411.391 141.141C405.953 135.703 397.938 132.984 387.344 132.984C378.062 132.984 370.281 135.328 364 140.016C357.719 144.703 354.578 150.375 354.578 157.031H328.422C328.422 149.438 331.094 142.125 336.438 135.094C341.875 127.969 349.188 122.344 358.375 118.219C367.656 114.094 377.828 112.031 388.891 112.031C406.422 112.031 420.156 116.437 430.094 125.25C440.031 133.969 445.188 146.016 445.562 161.391V231.422C445.562 245.391 447.344 256.5 450.906 264.75V267H423.625ZM380.453 247.172C388.609 247.172 396.344 245.062 403.656 240.844C410.969 236.625 416.266 231.141 419.547 224.391V193.172H399.156C367.281 193.172 351.344 202.5 351.344 221.156C351.344 229.312 354.062 235.688 359.5 240.281C364.938 244.875 371.922 247.172 380.453 247.172ZM521.641 78V114.844H550.047V134.953H521.641V229.312C521.641 235.406 522.906 240 525.438 243.094C527.969 246.094 532.281 247.594 538.375 247.594C541.375 247.594 545.5 247.031 550.75 245.906V267C543.906 268.875 537.25 269.812 530.781 269.812C519.156 269.812 510.391 266.297 504.484 259.266C498.578 252.234 495.625 242.25 495.625 229.312V134.953H467.922V114.844H495.625V78H521.641ZM674.5 267C673 264 671.781 258.656 670.844 250.969C658.75 263.531 644.312 269.812 627.531 269.812C612.531 269.812 600.203 265.594 590.547 257.156C580.984 248.625 576.203 237.844 576.203 224.812C576.203 208.969 582.203 196.688 594.203 187.969C606.297 179.156 623.266 174.75 645.109 174.75H670.422V162.797C670.422 153.703 667.703 146.484 662.266 141.141C656.828 135.703 648.812 132.984 638.219 132.984C628.938 132.984 621.156 135.328 614.875 140.016C608.594 144.703 605.453 150.375 605.453 157.031H579.297C579.297 149.438 581.969 142.125 587.312 135.094C592.75 127.969 600.062 122.344 609.25 118.219C618.531 114.094 628.703 112.031 639.766 112.031C657.297 112.031 671.031 116.437 680.969 125.25C690.906 133.969 696.062 146.016 696.438 161.391V231.422C696.438 245.391 698.219 256.5 701.781 264.75V267H674.5ZM631.328 247.172C639.484 247.172 647.219 245.062 654.531 240.844C661.844 236.625 667.141 231.141 670.422 224.391V193.172H650.031C618.156 193.172 602.219 202.5 602.219 221.156C602.219 229.312 604.938 235.688 610.375 240.281C615.812 244.875 622.797 247.172 631.328 247.172ZM765.484 267H739.469V51H765.484V267ZM800.359 189.516C800.359 174.609 803.266 161.203 809.078 149.297C814.984 137.391 823.141 128.203 833.547 121.734C844.047 115.266 856 112.031 869.406 112.031C890.125 112.031 906.859 119.203 919.609 133.547C932.453 147.891 938.875 166.969 938.875 190.781V192.609C938.875 207.422 936.016 220.734 930.297 232.547C924.672 244.266 916.562 253.406 905.969 259.969C895.469 266.531 883.375 269.812 869.688 269.812C849.062 269.812 832.328 262.641 819.484 248.297C806.734 233.953 800.359 214.969 800.359 191.344V189.516ZM826.516 192.609C826.516 209.484 830.406 223.031 838.188 233.25C846.062 243.469 856.562 248.578 869.688 248.578C882.906 248.578 893.406 243.422 901.188 233.109C908.969 222.703 912.859 208.172 912.859 189.516C912.859 172.828 908.875 159.328 900.906 149.016C893.031 138.609 882.531 133.406 869.406 133.406C856.562 133.406 846.203 138.516 838.328 148.734C830.453 158.953 826.516 173.578 826.516 192.609ZM965.312 189.656C965.312 165.938 970.797 147.094 981.766 133.125C992.734 119.062 1007.27 112.031 1025.36 112.031C1043.92 112.031 1058.41 118.594 1068.81 131.719L1070.08 114.844H1093.84V263.344C1093.84 283.031 1087.98 298.547 1076.27 309.891C1064.64 321.234 1048.98 326.906 1029.3 326.906C1018.33 326.906 1007.59 324.562 997.094 319.875C986.594 315.188 978.578 308.766 973.047 300.609L986.547 285C997.703 298.781 1011.34 305.672 1027.47 305.672C1040.12 305.672 1049.97 302.109 1057 294.984C1064.12 287.859 1067.69 277.828 1067.69 264.891V251.812C1057.28 263.812 1043.08 269.812 1025.08 269.812C1007.27 269.812 992.828 262.641 981.766 248.297C970.797 233.953 965.312 214.406 965.312 189.656ZM991.469 192.609C991.469 209.766 994.984 223.266 1002.02 233.109C1009.05 242.859 1018.89 247.734 1031.55 247.734C1047.95 247.734 1060 240.281 1067.69 225.375V155.906C1059.72 141.375 1047.77 134.109 1031.83 134.109C1019.17 134.109 1009.28 139.031 1002.16 148.875C995.031 158.719 991.469 173.297 991.469 192.609ZM1227.16 251.953C1217.03 263.859 1202.17 269.812 1182.58 269.812C1166.36 269.812 1153.98 265.125 1145.45 255.75C1137.02 246.281 1132.75 232.312 1132.66 213.844V114.844H1158.67V213.141C1158.67 236.203 1168.05 247.734 1186.8 247.734C1206.67 247.734 1219.89 240.328 1226.45 225.516V114.844H1252.47V267H1227.72L1227.16 251.953ZM1355.27 269.812C1334.64 269.812 1317.86 263.062 1304.92 249.562C1291.98 235.969 1285.52 217.828 1285.52 195.141V190.359C1285.52 175.266 1288.38 161.812 1294.09 150C1299.91 138.094 1307.97 128.812 1318.28 122.156C1328.69 115.406 1339.94 112.031 1352.03 112.031C1371.81 112.031 1387.19 118.547 1398.16 131.578C1409.12 144.609 1414.61 163.266 1414.61 187.547V198.375H1311.53C1311.91 213.375 1316.27 225.516 1324.61 234.797C1333.05 243.984 1343.73 248.578 1356.67 248.578C1365.86 248.578 1373.64 246.703 1380.02 242.953C1386.39 239.203 1391.97 234.234 1396.75 228.047L1412.64 240.422C1399.89 260.016 1380.77 269.812 1355.27 269.812ZM1352.03 133.406C1341.53 133.406 1332.72 137.25 1325.59 144.938C1318.47 152.531 1314.06 163.219 1312.38 177H1388.59V175.031C1387.84 161.812 1384.28 151.594 1377.91 144.375C1371.53 137.062 1362.91 133.406 1352.03 133.406Z" fill="#B13F86"/>
</svg>
