<svg width="310" height="338" viewBox="0 0 310 338" fill="none" xmlns="http://www.w3.org/2000/svg">
<circle cx="155" cy="169" r="155" fill="#F4D9EA"/>
<path d="M239.016 198.797C237.422 220.828 229.266 238.172 214.547 250.828C199.922 263.484 180.609 269.812 156.609 269.812C130.359 269.812 109.688 261 94.5938 243.375C79.5938 225.656 72.0938 201.375 72.0938 170.531V158.016C72.0938 138.328 75.5625 120.984 82.5 105.984C89.4375 90.9844 99.3281 79.5 112.172 71.5312C125.109 63.4688 140.109 59.4375 157.172 59.4375C180.797 59.4375 199.828 65.7656 214.266 78.4219C228.703 91.0781 237.047 108.844 239.297 131.719H197.109C196.078 118.5 192.375 108.938 186 103.031C179.719 97.0312 170.109 94.0312 157.172 94.0312C143.109 94.0312 132.562 99.0938 125.531 109.219C118.594 119.25 115.031 134.859 114.844 156.047V171.516C114.844 193.641 118.172 209.812 124.828 220.031C131.578 230.25 142.172 235.359 156.609 235.359C169.641 235.359 179.344 232.406 185.719 226.5C192.188 220.5 195.891 211.266 196.828 198.797H239.016Z" fill="#641145"/>
</svg>
